<svg fill="none" height="100%" width="100%" viewBox="0 0 400 400" xmlns:xlink="http://www.w3.org/1999/xlink" xmlns="http://www.w3.org/2000/svg"><g opacity="0" id="i0"><animate repeatCount="indefinite" attributeName="opacity" dur="4.033s" begin="0s" fill="freeze" values="0; 1; 1" keyTimes="0; 0.082645; 1" keySplines="0.333 0 0.667 1; 0 0 1 1" calcMode="spline" /><g transform="translate(51.207,187.841)"><g transform="rotate(0)"><animateTransform repeatCount="indefinite" type="rotate" attributeName="transform" dur="4.033s" begin="0s" calcMode="spline" values="0; 720; 720" keyTimes="0; 0.991736; 1" keySplines="0 0 1 1; 0 0 1 1" fill="freeze" /><g transform="scale(0,0)"><animateTransform repeatCount="indefinite" type="scale" attributeName="transform" dur="4.033s" begin="0s" calcMode="spline" values="0 0; 1.06 1.06; 1 1; 1.03 1.03; 1 1; 1 1" keyTimes="0; 0.082645; 0.107438; 0.132231; 0.157025; 1" keySplines="0.333 0 0.667 1; 0.333 0 0.667 1; 0.333 0 0.667 1; 0.333 0 0.667 1; 0 0 1 1" fill="freeze" /><g transform="translate(0,0)"><g id="i1"><path fill="#4669dc" d="M35.661,-6.538C35.661,-6.538,28.325,-6.538,28.325,-6.538C27.592,-9.726,26.338,-12.713,24.652,-15.405C24.652,-15.405,29.839,-20.593,29.839,-20.593C30.799,-21.553,30.799,-23.111,29.839,-24.071C29.839,-24.071,24.071,-29.839,24.071,-29.839C23.111,-30.799,21.553,-30.799,20.593,-29.839C20.593,-29.839,15.405,-24.651,15.405,-24.651C12.713,-26.337,9.726,-27.592,6.538,-28.325C6.538,-28.325,6.538,-35.661,6.538,-35.661C6.538,-37.019,5.437,-38.12,4.079,-38.12C4.079,-38.12,-4.079,-38.12,-4.079,-38.12C-5.437,-38.12,-6.538,-37.019,-6.538,-35.661C-6.538,-35.661,-6.538,-28.325,-6.538,-28.325C-9.726,-27.592,-12.713,-26.337,-15.405,-24.651C-15.405,-24.651,-20.593,-29.839,-20.593,-29.839C-21.553,-30.799,-23.111,-30.799,-24.071,-29.839C-24.071,-29.839,-29.839,-24.071,-29.839,-24.071C-30.799,-23.111,-30.799,-21.553,-29.839,-20.593C-29.839,-20.593,-24.652,-15.405,-24.652,-15.405C-26.338,-12.713,-27.592,-9.726,-28.325,-6.538C-28.325,-6.538,-35.661,-6.538,-35.661,-6.538C-37.019,-6.538,-38.12,-5.437,-38.12,-4.079C-38.12,-4.079,-38.12,4.079,-38.12,4.079C-38.12,5.437,-37.019,6.538,-35.661,6.538C-35.661,6.538,-28.325,6.538,-28.325,6.538C-27.592,9.726,-26.338,12.713,-24.652,15.405C-24.652,15.405,-29.839,20.593,-29.839,20.593C-30.799,21.553,-30.799,23.111,-29.839,24.071C-29.839,24.071,-24.071,29.839,-24.071,29.839C-23.111,30.799,-21.553,30.799,-20.593,29.839C-20.593,29.839,-15.405,24.652,-15.405,24.652C-12.713,26.338,-9.726,27.592,-6.538,28.325C-6.538,28.325,-6.538,35.661,-6.538,35.661C-6.538,37.019,-5.437,38.12,-4.079,38.12C-4.079,38.12,4.079,38.12,4.079,38.12C5.437,38.12,6.538,37.019,6.538,35.661C6.538,35.661,6.538,28.325,6.538,28.325C9.726,27.592,12.713,26.338,15.405,24.652C15.405,24.652,20.593,29.839,20.593,29.839C21.553,30.799,23.111,30.799,24.071,29.839C24.071,29.839,29.839,24.071,29.839,24.071C30.799,23.111,30.799,21.553,29.839,20.593C29.839,20.593,24.652,15.405,24.652,15.405C26.338,12.713,27.592,9.726,28.325,6.538C28.325,6.538,35.661,6.538,35.661,6.538C37.019,6.538,38.12,5.437,38.12,4.079C38.12,4.079,38.12,-4.079,38.12,-4.079C38.12,-5.437,37.019,-6.538,35.661,-6.538ZM0,17.172C-9.484,17.172,-17.172,9.484,-17.172,0C-17.172,-9.484,-9.484,-17.172,0,-17.172C9.484,-17.172,17.172,-9.484,17.172,0C17.172,9.484,9.484,17.172,0,17.172Z" /></g></g></g></g></g></g><g opacity="0" id="i2"><animate repeatCount="indefinite" attributeName="opacity" dur="4.033s" begin="0s" fill="freeze" values="0; 1; 1" keyTimes="0; 0.082645; 1" keySplines="0.333 0 0.667 1; 0 0 1 1" calcMode="spline" /><g transform="translate(34.133,133.705)"><g transform="rotate(0)"><animateTransform repeatCount="indefinite" type="rotate" attributeName="transform" dur="4.033s" begin="0s" calcMode="spline" values="0; -720; -720" keyTimes="0; 0.991736; 1" keySplines="0 0 1 1; 0 0 1 1" fill="freeze" /><g transform="scale(0,0)"><animateTransform repeatCount="indefinite" type="scale" attributeName="transform" dur="4.033s" begin="0s" calcMode="spline" values="0 0; 1.06 1.06; 1 1; 1.03 1.03; 1 1; 1 1" keyTimes="0; 0.082645; 0.107438; 0.132231; 0.157025; 1" keySplines="0.333 0 0.667 1; 0.333 0 0.667 1; 0.333 0 0.667 1; 0.333 0 0.667 1; 0 0 1 1" fill="freeze" /><g transform="translate(0,0)"><g id="i1"><path fill="#4669dc" d="M19.808,-3.632C19.808,-3.632,15.733,-3.632,15.733,-3.632C15.326,-5.403,14.629,-7.062,13.693,-8.557C13.693,-8.557,16.575,-11.439,16.575,-11.439C17.108,-11.972,17.108,-12.837,16.575,-13.37C16.575,-13.37,13.371,-16.575,13.371,-16.575C12.838,-17.108,11.972,-17.108,11.439,-16.575C11.439,-16.575,8.557,-13.693,8.557,-13.693C7.062,-14.629,5.403,-15.326,3.632,-15.733C3.632,-15.733,3.632,-19.808,3.632,-19.808C3.632,-20.562,3.02,-21.174,2.266,-21.174C2.266,-21.174,-2.266,-21.174,-2.266,-21.174C-3.02,-21.174,-3.632,-20.562,-3.632,-19.808C-3.632,-19.808,-3.632,-15.733,-3.632,-15.733C-5.403,-15.326,-7.062,-14.629,-8.557,-13.693C-8.557,-13.693,-11.439,-16.575,-11.439,-16.575C-11.972,-17.108,-12.837,-17.108,-13.37,-16.575C-13.37,-16.575,-16.575,-13.37,-16.575,-13.37C-17.108,-12.837,-17.108,-11.972,-16.575,-11.439C-16.575,-11.439,-13.693,-8.557,-13.693,-8.557C-14.629,-7.062,-15.326,-5.403,-15.733,-3.632C-15.733,-3.632,-19.808,-3.632,-19.808,-3.632C-20.562,-3.632,-21.174,-3.02,-21.174,-2.266C-21.174,-2.266,-21.174,2.266,-21.174,2.266C-21.174,3.02,-20.562,3.632,-19.808,3.632C-19.808,3.632,-15.733,3.632,-15.733,3.632C-15.326,5.403,-14.629,7.062,-13.693,8.557C-13.693,8.557,-16.575,11.439,-16.575,11.439C-17.108,11.972,-17.108,12.838,-16.575,13.371C-16.575,13.371,-13.37,16.575,-13.37,16.575C-12.837,17.108,-11.972,17.108,-11.439,16.575C-11.439,16.575,-8.557,13.693,-8.557,13.693C-7.062,14.629,-5.403,15.326,-3.632,15.733C-3.632,15.733,-3.632,19.808,-3.632,19.808C-3.632,20.562,-3.02,21.174,-2.266,21.174C-2.266,21.174,2.266,21.174,2.266,21.174C3.02,21.174,3.632,20.562,3.632,19.808C3.632,19.808,3.632,15.733,3.632,15.733C5.403,15.326,7.062,14.629,8.557,13.693C8.557,13.693,11.439,16.575,11.439,16.575C11.972,17.108,12.838,17.108,13.371,16.575C13.371,16.575,16.575,13.371,16.575,13.371C17.108,12.838,17.108,11.972,16.575,11.439C16.575,11.439,13.693,8.557,13.693,8.557C14.629,7.062,15.326,5.403,15.733,3.632C15.733,3.632,19.808,3.632,19.808,3.632C20.562,3.632,21.174,3.02,21.174,2.266C21.174,2.266,21.174,-2.266,21.174,-2.266C21.174,-3.02,20.562,-3.632,19.808,-3.632ZM0,9.539C-5.268,9.539,-9.538,5.268,-9.538,0C-9.538,-5.268,-5.268,-9.538,0,-9.538C5.268,-9.538,9.539,-5.268,9.539,0C9.539,5.268,5.268,9.539,0,9.539Z" /></g></g></g></g></g></g><g opacity="0" id="i3"><animate repeatCount="indefinite" attributeName="opacity" dur="4.033s" begin="0s" fill="freeze" values="0; 1; 1" keyTimes="0; 0.082645; 1" keySplines="0.333 0 0.667 1; 0 0 1 1" calcMode="spline" /><g transform="translate(200,187.841)"><g transform="scale(0,0)"><animateTransform repeatCount="indefinite" type="scale" attributeName="transform" dur="4.033s" begin="0s" calcMode="spline" values="0 0; 1.06 1.06; 1 1; 1.03 1.03; 1 1; 1 1" keyTimes="0; 0.082645; 0.107438; 0.132231; 0.157025; 1" keySplines="0.333 0 0.667 1; 0.333 0 0.667 1; 0.333 0 0.667 1; 0.333 0 0.667 1; 0 0 1 1" fill="freeze" /><g transform="translate(0,0)"><g id="i1"><path fill="#2b57bc" d="M143.409,105.909C143.409,105.909,-143.409,105.909,-143.409,105.909C-143.409,105.909,-143.409,-100.614,-143.409,-100.614C-143.409,-103.539,-141.039,-105.909,-138.114,-105.909C-138.114,-105.909,138.114,-105.909,138.114,-105.909C141.039,-105.909,143.409,-103.539,143.409,-100.614C143.409,-100.614,143.409,105.909,143.409,105.909Z" /></g></g></g></g></g><g opacity="0" visibility="hidden" id="i4"><animate repeatCount="indefinite" begin="0s" calcMode="discrete" dur="4.033s" values="hidden; visible; visible; visible" keyTimes="0; 0.024998; 0.999917; 1" attributeName="visibility" /><animate repeatCount="indefinite" attributeName="opacity" dur="4.033s" begin="0s" fill="freeze" values="0; 0; 1; 1" keyTimes="0; 0.024793; 0.107438; 1" keySplines="0 0 1 1; 0.333 0 0.667 1; 0 0 1 1" calcMode="spline" /><g transform="translate(200,92.023)"><g transform="scale(0,0)"><animateTransform repeatCount="indefinite" type="scale" attributeName="transform" dur="4.033s" begin="0s" calcMode="spline" values="0 0; 0 0; 1.06 1.06; 1 1; 1.03 1.03; 1 1; 1 1" keyTimes="0; 0.024793; 0.107438; 0.132231; 0.157025; 0.181818; 1" keySplines="0 0 1 1; 0.333 0 0.667 1; 0.333 0 0.667 1; 0.333 0 0.667 1; 0.333 0 0.667 1; 0 0 1 1" fill="freeze" /><g transform="translate(0,0)"><g id="i1"><path fill="#ffffff" d="M5,0C5,2.761,2.761,5,0,5C-2.761,5,-5,2.761,-5,0C-5,-2.761,-2.761,-5,0,-5C2.761,-5,5,-2.761,5,0Z" /></g></g></g></g></g><g opacity="0" visibility="hidden" id="i5"><animate repeatCount="indefinite" begin="0s" calcMode="discrete" dur="4.033s" values="hidden; visible; visible; visible" keyTimes="0; 0.049996; 0.999917; 1" attributeName="visibility" /><animate repeatCount="indefinite" attributeName="opacity" dur="4.033s" begin="0s" fill="freeze" values="0; 0; 1; 1" keyTimes="0; 0.049587; 0.132231; 1" keySplines="0 0 1 1; 0.333 0 0.667 1; 0 0 1 1" calcMode="spline" /><g transform="translate(200,187.841)"><g transform="scale(0,0)"><animateTransform repeatCount="indefinite" type="scale" attributeName="transform" dur="4.033s" begin="0s" calcMode="spline" values="0 0; 0 0; 1.06 1.06; 1 1; 1.03 1.03; 1 1; 1 1" keyTimes="0; 0.049587; 0.132231; 0.157025; 0.181818; 0.206611; 1" keySplines="0 0 1 1; 0.333 0 0.667 1; 0.333 0 0.667 1; 0.333 0 0.667 1; 0.333 0 0.667 1; 0 0 1 1" fill="freeze" /><g transform="translate(0,0)"><g id="i1"><path fill="#19305e" d="M118.329,85.78C118.329,85.78,-118.329,85.78,-118.329,85.78C-121.295,85.78,-123.7,83.375,-123.7,80.409C-123.7,80.409,-123.7,-80.409,-123.7,-80.409C-123.7,-83.375,-121.295,-85.78,-118.329,-85.78C-118.329,-85.78,118.329,-85.78,118.329,-85.78C121.295,-85.78,123.7,-83.375,123.7,-80.409C123.7,-80.409,123.7,80.409,123.7,80.409C123.7,83.375,121.295,85.78,118.329,85.78Z" /></g></g></g></g></g><g opacity="0" visibility="hidden" id="i6"><animate repeatCount="indefinite" begin="0s" calcMode="discrete" dur="4.033s" values="hidden; visible; visible; visible" keyTimes="0; 0.040997; 0.999917; 1" attributeName="visibility" /><animate repeatCount="indefinite" attributeName="opacity" dur="4.033s" begin="0s" fill="freeze" values="0; 0; 1; 1" keyTimes="0; 0.041322; 0.123967; 1" keySplines="0 0 1 1; 0.333 0 0.667 1; 0 0 1 1" calcMode="spline" /><g transform="translate(200,303.909)"><g transform="scale(0,0)"><animateTransform repeatCount="indefinite" type="scale" attributeName="transform" dur="4.033s" begin="0s" calcMode="spline" values="0 0; 0 0; 1.06 1.06; 1 1; 1.03 1.03; 1 1; 1 1" keyTimes="0; 0.041322; 0.123967; 0.14876; 0.173554; 0.198347; 1" keySplines="0 0 1 1; 0.333 0 0.667 1; 0.333 0 0.667 1; 0.333 0 0.667 1; 0.333 0 0.667 1; 0 0 1 1" fill="freeze" /><g transform="translate(0,0)"><g id="i1"><path fill="#4669dc" d="M165.328,12.159C165.328,12.159,-165.328,12.159,-165.328,12.159C-169.14,12.159,-172.23,9.069,-172.23,5.257C-172.23,5.257,-172.23,-5.257,-172.23,-5.257C-172.23,-9.069,-169.14,-12.159,-165.328,-12.159C-165.328,-12.159,165.328,-12.159,165.328,-12.159C169.14,-12.159,172.23,-9.069,172.23,-5.257C172.23,-5.257,172.23,5.257,172.23,5.257C172.23,9.069,169.14,12.159,165.328,12.159Z" /></g></g></g></g></g><g opacity="0" visibility="hidden" id="i7"><animate repeatCount="indefinite" begin="0s" calcMode="discrete" dur="4.033s" values="hidden; visible; visible; visible" keyTimes="0; 0.065995; 0.999917; 1" attributeName="visibility" /><animate repeatCount="indefinite" attributeName="opacity" dur="4.033s" begin="0s" fill="freeze" values="0; 0; 1; 1" keyTimes="0; 0.066116; 0.14876; 1" keySplines="0 0 1 1; 0.333 0 0.667 1; 0 0 1 1" calcMode="spline" /><g transform="translate(200,308.597)"><g transform="scale(0,0)"><animateTransform repeatCount="indefinite" type="scale" attributeName="transform" dur="4.033s" begin="0s" calcMode="spline" values="0 0; 0 0; 1.06 1.06; 1 1; 1.03 1.03; 1 1; 1 1" keyTimes="0; 0.066116; 0.14876; 0.173554; 0.198347; 0.22314; 1" keySplines="0 0 1 1; 0.333 0 0.667 1; 0.333 0 0.667 1; 0.333 0 0.667 1; 0.333 0 0.667 1; 0 0 1 1" fill="freeze" /><g transform="translate(0,0)"><g id="i1"><path fill="#2b57bc" d="M64.38,7.472C64.38,7.472,-64.38,7.472,-64.38,7.472C-64.38,7.472,-64.38,7.472,-64.38,7.472C-64.38,-0.781,-57.69,-7.472,-49.437,-7.472C-49.437,-7.472,49.437,-7.472,49.437,-7.472C57.69,-7.472,64.38,-0.781,64.38,7.472C64.38,7.472,64.38,7.472,64.38,7.472Z" /></g></g></g></g></g><g opacity="0" visibility="hidden" id="i8"><animate repeatCount="indefinite" begin="0s" calcMode="discrete" dur="4.033s" values="hidden; visible; visible; visible" keyTimes="0; 0.12399; 0.999917; 1" attributeName="visibility" /><animate repeatCount="indefinite" attributeName="opacity" dur="4.033s" begin="0s" fill="freeze" values="0; 0; 1; 1" keyTimes="0; 0.123967; 0.206612; 1" keySplines="0 0 1 1; 0.333 0 0.667 1; 0 0 1 1" calcMode="spline" /><g transform="translate(200,273.621)"><g transform="scale(0,0)"><animateTransform repeatCount="indefinite" type="scale" attributeName="transform" dur="4.033s" begin="0s" calcMode="spline" values="0 0; 0 0; 1.06 1.06; 1 1; 1.03 1.03; 1 1; 1 1" keyTimes="0; 0.123967; 0.206612; 0.231405; 0.256198; 0.280992; 1" keySplines="0 0 1 1; 0.333 0 0.667 1; 0.333 0 0.667 1; 0.333 0 0.667 1; 0.333 0 0.667 1; 0 0 1 1" fill="freeze" /><g transform="translate(-200,-273.621)"><g id="i9" transform="matrix(1,0,0,1,0,0)"><g id="i9" transform="matrix(1,0,0,1,200,162.906)"><path fill="#ffffff" d="M107.406,110.715C107.406,110.715,-107.406,110.715,-107.406,110.715C-107.406,110.715,-107.406,-95.229,-107.406,-95.229C-107.406,-103.782,-100.473,-110.715,-91.92,-110.715C-91.92,-110.715,91.92,-110.715,91.92,-110.715C100.473,-110.715,107.406,-103.782,107.406,-95.229C107.406,-95.229,107.406,110.715,107.406,110.715Z" /></g><g id="i1" transform="matrix(1,0,0,1,200,69.607)"><path fill="#4669dc" d="M107.406,17.416C107.406,17.416,-107.406,17.416,-107.406,17.416C-107.406,17.416,-107.406,-2.416,-107.406,-2.416C-107.406,-10.7,-100.69,-17.416,-92.406,-17.416C-92.406,-17.416,92.406,-17.416,92.406,-17.416C100.69,-17.416,107.406,-10.7,107.406,-2.416C107.406,-2.416,107.406,17.416,107.406,17.416Z" /></g></g><g id="i1" transform="matrix(1,0,0,1,0,0)"><g id="i10" transform="matrix(1,0,0,1,111.954,69.607)"><path fill="#ed6a5d" d="M4.014,0C4.014,2.217,2.217,4.014,0,4.014C-2.217,4.014,-4.014,2.217,-4.014,0C-4.014,-2.217,-2.217,-4.014,0,-4.014C2.217,-4.014,4.014,-2.217,4.014,0Z" /></g><g id="i9" transform="matrix(1,0,0,1,123.841,69.607)"><path fill="#f6bd4f" d="M4.014,0C4.014,2.217,2.217,4.014,0,4.014C-2.217,4.014,-4.014,2.217,-4.014,0C-4.014,-2.217,-2.217,-4.014,0,-4.014C2.217,-4.014,4.014,-2.217,4.014,0Z" /></g><g id="i1" transform="matrix(1,0,0,1,135.728,69.607)"><path fill="#64c754" d="M4.014,0C4.014,2.217,2.217,4.014,0,4.014C-2.217,4.014,-4.014,2.217,-4.014,0C-4.014,-2.217,-2.217,-4.014,0,-4.014C2.217,-4.014,4.014,-2.217,4.014,0Z" /></g></g></g></g></g></g><g id="i8"><g transform="translate(200,273.621)"><g transform="scale(0,0)"><animateTransform repeatCount="indefinite" type="scale" attributeName="transform" dur="4.033s" begin="0s" calcMode="spline" values="0 0; 0 0; 1.06 1.06; 1 1; 1.03 1.03; 1 1; 1 1" keyTimes="0; 0.123967; 0.206612; 0.231405; 0.256198; 0.280992; 1" keySplines="0 0 1 1; 0.333 0 0.667 1; 0.333 0 0.667 1; 0.333 0 0.667 1; 0.333 0 0.667 1; 0 0 1 1" fill="freeze" /><g transform="translate(-200,-273.621)"><g transform="matrix(1,0,0,1,160.833,113.002)" visibility="hidden" id="i11"><animate repeatCount="indefinite" begin="0s" calcMode="discrete" dur="4.033s" values="hidden; visible; visible; visible" keyTimes="0; 0.156987; 0.999917; 1" attributeName="visibility" /><g id="i1"><path stroke-miterlimit="10" stroke-linecap="round" stroke-width="8" stroke="#dcdee2" d="M-42.308,0"><set fill="freeze" dur="0.033s" begin="0.6333333333333333s" to="M-42.308,0" attributeName="d" /><set fill="freeze" dur="0.033s" begin="0.6666666666666666s" to="M-42.308,0C-42.308,0,-41.876,0,-41.073,0" attributeName="d" /><set fill="freeze" dur="0.033s" begin="0.7s" to="M-42.308,0C-42.308,0,-40.579,0,-37.615,0" attributeName="d" /><set fill="freeze" dur="0.033s" begin="0.7333333333333333s" to="M-42.308,0C-42.308,0,-38.419,0,-32.309,0" attributeName="d" /><set fill="freeze" dur="0.033s" begin="0.7666666666666667s" to="M-42.308,0C-42.308,0,-35.396,0,-25.524,0" attributeName="d" /><set fill="freeze" dur="0.033s" begin="0.8s" to="M-42.308,0C-42.308,0,-31.511,0,-17.631,0" attributeName="d" /><set fill="freeze" dur="0.033s" begin="0.8333333333333334s" to="M-42.308,0C-42.308,0,-26.764,0,-9,0" attributeName="d" /><set fill="freeze" dur="0.033s" begin="0.8666666666666667s" to="M-42.308,0C-42.308,0,-21.154,0,0,0" attributeName="d" /><set fill="freeze" dur="0.033s" begin="0.9s" to="M-42.308,0C-42.308,0,-14.682,0,9,0" attributeName="d" /><set fill="freeze" dur="0.033s" begin="0.9333333333333333s" to="M-42.308,0C-42.308,0,-7.346,0,17.631,0" attributeName="d" /><set fill="freeze" dur="0.033s" begin="0.9666666666666667s" to="M-42.308,0C-42.308,0,0.853,0,25.524,0" attributeName="d" /><set fill="freeze" dur="0.033s" begin="1s" to="M-42.308,0C-42.308,0,9.917,0,32.309,0" attributeName="d" /><set fill="freeze" dur="0.033s" begin="1.0333333333333334s" to="M-42.308,0C-42.308,0,19.846,0,37.615,0" attributeName="d" /><set fill="freeze" dur="0.033s" begin="1.0666666666666667s" to="M-42.308,0C-42.308,0,30.643,0,41.073,0" attributeName="d" /><set fill="freeze" dur="0.033s" begin="1.1s" to="M-42.308,0C-42.308,0,42.308,0,42.308,0" attributeName="d" /></path></g></g></g></g></g></g><g id="i8"><g transform="translate(200,273.621)"><g transform="scale(0,0)"><animateTransform repeatCount="indefinite" type="scale" attributeName="transform" dur="4.033s" begin="0s" calcMode="spline" values="0 0; 0 0; 1.06 1.06; 1 1; 1.03 1.03; 1 1; 1 1" keyTimes="0; 0.123967; 0.206612; 0.231405; 0.256198; 0.280992; 1" keySplines="0 0 1 1; 0.333 0 0.667 1; 0.333 0 0.667 1; 0.333 0 0.667 1; 0.333 0 0.667 1; 0 0 1 1" fill="freeze" /><g transform="translate(-200,-273.621)"><g transform="matrix(1,0,0,1,160.984,133.705)" visibility="hidden" id="i12"><animate repeatCount="indefinite" begin="0s" calcMode="discrete" dur="4.033s" values="hidden; visible; visible; visible" keyTimes="0; 0.189984; 0.999917; 1" attributeName="visibility" /><g id="i1"><path stroke-miterlimit="10" stroke-linecap="round" stroke-width="8" stroke="#dcdee2" d="M-42.158,0"><set fill="freeze" dur="0.033s" begin="0.7666666666666667s" to="M-42.158,0" attributeName="d" /><set fill="freeze" dur="0.033s" begin="0.8s" to="M-42.158,0C-42.158,0,-41.727,0,-40.927,0" attributeName="d" /><set fill="freeze" dur="0.033s" begin="0.8333333333333334s" to="M-42.158,0C-42.158,0,-40.435,0,-37.482,0" attributeName="d" /><set fill="freeze" dur="0.033s" begin="0.8666666666666667s" to="M-42.158,0C-42.158,0,-38.283,0,-32.194,0" attributeName="d" /><set fill="freeze" dur="0.033s" begin="0.9s" to="M-42.158,0C-42.158,0,-35.271,0,-25.433,0" attributeName="d" /><set fill="freeze" dur="0.033s" begin="0.9333333333333333s" to="M-42.158,0C-42.158,0,-31.399,0,-17.568,0" attributeName="d" /><set fill="freeze" dur="0.033s" begin="0.9666666666666667s" to="M-42.158,0C-42.158,0,-26.669,0,-8.968,0" attributeName="d" /><set fill="freeze" dur="0.033s" begin="1s" to="M-42.158,0C-42.158,0,-21.079,0,0,0" attributeName="d" /><set fill="freeze" dur="0.033s" begin="1.0333333333333334s" to="M-42.158,0C-42.158,0,-14.63,0,8.968,0" attributeName="d" /><set fill="freeze" dur="0.033s" begin="1.0666666666666667s" to="M-42.158,0C-42.158,0,-7.32,0,17.568,0" attributeName="d" /><set fill="freeze" dur="0.033s" begin="1.1s" to="M-42.158,0C-42.158,0,0.85,0,25.433,0" attributeName="d" /><set fill="freeze" dur="0.033s" begin="1.1333333333333333s" to="M-42.158,0C-42.158,0,9.882,0,32.194,0" attributeName="d" /><set fill="freeze" dur="0.033s" begin="1.1666666666666667s" to="M-42.158,0C-42.158,0,19.776,0,37.482,0" attributeName="d" /><set fill="freeze" dur="0.033s" begin="1.2s" to="M-42.158,0C-42.158,0,30.534,0,40.927,0" attributeName="d" /><set fill="freeze" dur="0.033s" begin="1.2333333333333334s" to="M-42.158,0C-42.158,0,42.158,0,42.158,0" attributeName="d" /></path></g></g></g></g></g></g><g id="i8"><g transform="translate(200,273.621)"><g transform="scale(0,0)"><animateTransform repeatCount="indefinite" type="scale" attributeName="transform" dur="4.033s" begin="0s" calcMode="spline" values="0 0; 0 0; 1.06 1.06; 1 1; 1.03 1.03; 1 1; 1 1" keyTimes="0; 0.123967; 0.206612; 0.231405; 0.256198; 0.280992; 1" keySplines="0 0 1 1; 0.333 0 0.667 1; 0.333 0 0.667 1; 0.333 0 0.667 1; 0.333 0 0.667 1; 0 0 1 1" fill="freeze" /><g transform="translate(-200,-273.621)"><g transform="matrix(1,0,0,1,161.135,154.407)" visibility="hidden" id="i13"><animate repeatCount="indefinite" begin="0s" calcMode="discrete" dur="4.033s" values="hidden; visible; visible; visible" keyTimes="0; 0.222982; 0.999917; 1" attributeName="visibility" /><g id="i1"><path stroke-miterlimit="10" stroke-linecap="round" stroke-width="8" stroke="#dcdee2" d="M-42.308,0"><set fill="freeze" dur="0.033s" begin="0.9s" to="M-42.308,0" attributeName="d" /><set fill="freeze" dur="0.033s" begin="0.9333333333333333s" to="M-42.308,0C-42.308,0,-41.876,0,-41.073,0" attributeName="d" /><set fill="freeze" dur="0.033s" begin="0.9666666666666667s" to="M-42.308,0C-42.308,0,-40.579,0,-37.615,0" attributeName="d" /><set fill="freeze" dur="0.033s" begin="1s" to="M-42.308,0C-42.308,0,-38.419,0,-32.309,0" attributeName="d" /><set fill="freeze" dur="0.033s" begin="1.0333333333333334s" to="M-42.308,0C-42.308,0,-35.396,0,-25.524,0" attributeName="d" /><set fill="freeze" dur="0.033s" begin="1.0666666666666667s" to="M-42.308,0C-42.308,0,-31.511,0,-17.631,0" attributeName="d" /><set fill="freeze" dur="0.033s" begin="1.1s" to="M-42.308,0C-42.308,0,-26.764,0,-9,0" attributeName="d" /><set fill="freeze" dur="0.033s" begin="1.1333333333333333s" to="M-42.308,0C-42.308,0,-21.154,0,0,0" attributeName="d" /><set fill="freeze" dur="0.033s" begin="1.1666666666666667s" to="M-42.308,0C-42.308,0,-14.682,0,9,0" attributeName="d" /><set fill="freeze" dur="0.033s" begin="1.2s" to="M-42.308,0C-42.308,0,-7.346,0,17.631,0" attributeName="d" /><set fill="freeze" dur="0.033s" begin="1.2333333333333334s" to="M-42.308,0C-42.308,0,0.853,0,25.524,0" attributeName="d" /><set fill="freeze" dur="0.033s" begin="1.2666666666666666s" to="M-42.308,0C-42.308,0,9.917,0,32.309,0" attributeName="d" /><set fill="freeze" dur="0.033s" begin="1.3s" to="M-42.308,0C-42.308,0,19.846,0,37.615,0" attributeName="d" /><set fill="freeze" dur="0.033s" begin="1.3333333333333333s" to="M-42.308,0C-42.308,0,30.643,0,41.073,0" attributeName="d" /><set fill="freeze" dur="0.033s" begin="1.3666666666666667s" to="M-42.308,0C-42.308,0,42.308,0,42.308,0" attributeName="d" /></path></g></g></g></g></g></g><g id="i8"><g transform="translate(200,273.621)"><g transform="scale(0,0)"><animateTransform repeatCount="indefinite" type="scale" attributeName="transform" dur="4.033s" begin="0s" calcMode="spline" values="0 0; 0 0; 1.06 1.06; 1 1; 1.03 1.03; 1 1; 1 1" keyTimes="0; 0.123967; 0.206612; 0.231405; 0.256198; 0.280992; 1" keySplines="0 0 1 1; 0.333 0 0.667 1; 0.333 0 0.667 1; 0.333 0 0.667 1; 0.333 0 0.667 1; 0 0 1 1" fill="freeze" /><g transform="translate(-200,-273.621)"><g transform="matrix(1,0,0,1,153.586,175.11)" visibility="hidden" id="i14"><animate repeatCount="indefinite" begin="0s" calcMode="discrete" dur="4.033s" values="hidden; visible; visible; visible" keyTimes="0; 0.255979; 0.999917; 1" attributeName="visibility" /><g id="i1"><path stroke-miterlimit="10" stroke-linecap="round" stroke-width="8" stroke="#dcdee2" d="M-35.061,0"><set fill="freeze" dur="0.033s" begin="1.0333333333333334s" to="M-35.061,0" attributeName="d" /><set fill="freeze" dur="0.033s" begin="1.0666666666666667s" to="M-35.061,0C-35.061,0,-34.703,0,-34.037,0" attributeName="d" /><set fill="freeze" dur="0.033s" begin="1.1s" to="M-35.061,0C-35.061,0,-33.628,0,-31.172,0" attributeName="d" /><set fill="freeze" dur="0.033s" begin="1.1333333333333333s" to="M-35.061,0C-35.061,0,-31.838,0,-26.775,0" attributeName="d" /><set fill="freeze" dur="0.033s" begin="1.1666666666666667s" to="M-35.061,0C-35.061,0,-29.333,0,-21.152,0" attributeName="d" /><set fill="freeze" dur="0.033s" begin="1.2s" to="M-35.061,0C-35.061,0,-26.113,0,-14.611,0" attributeName="d" /><set fill="freeze" dur="0.033s" begin="1.2333333333333334s" to="M-35.061,0C-35.061,0,-22.179,0,-7.458,0" attributeName="d" /><set fill="freeze" dur="0.033s" begin="1.2666666666666666s" to="M-35.061,0C-35.061,0,-17.53,0,0,0" attributeName="d" /><set fill="freeze" dur="0.033s" begin="1.3s" to="M-35.061,0C-35.061,0,-12.167,0,7.458,0" attributeName="d" /><set fill="freeze" dur="0.033s" begin="1.3333333333333333s" to="M-35.061,0C-35.061,0,-6.088,0,14.611,0" attributeName="d" /><set fill="freeze" dur="0.033s" begin="1.3666666666666667s" to="M-35.061,0C-35.061,0,0.707,0,21.152,0" attributeName="d" /><set fill="freeze" dur="0.033s" begin="1.4s" to="M-35.061,0C-35.061,0,8.218,0,26.775,0" attributeName="d" /><set fill="freeze" dur="0.033s" begin="1.4333333333333333s" to="M-35.061,0C-35.061,0,16.447,0,31.172,0" attributeName="d" /><set fill="freeze" dur="0.033s" begin="1.4666666666666666s" to="M-35.061,0C-35.061,0,25.394,0,34.037,0" attributeName="d" /><set fill="freeze" dur="0.033s" begin="1.5s" to="M-35.061,0C-35.061,0,35.061,0,35.061,0" attributeName="d" /></path></g></g></g></g></g></g><g id="i8"><g transform="translate(200,273.621)"><g transform="scale(0,0)"><animateTransform repeatCount="indefinite" type="scale" attributeName="transform" dur="4.033s" begin="0s" calcMode="spline" values="0 0; 0 0; 1.06 1.06; 1 1; 1.03 1.03; 1 1; 1 1" keyTimes="0; 0.123967; 0.206612; 0.231405; 0.256198; 0.280992; 1" keySplines="0 0 1 1; 0.333 0 0.667 1; 0.333 0 0.667 1; 0.333 0 0.667 1; 0.333 0 0.667 1; 0 0 1 1" fill="freeze" /><g transform="translate(-200,-273.621)"><g opacity="0" visibility="hidden" id="i15"><animate repeatCount="indefinite" begin="0s" calcMode="discrete" dur="4.033s" values="hidden; visible; visible; visible" keyTimes="0; 0.272977; 0.999917; 1" attributeName="visibility" /><animate repeatCount="indefinite" attributeName="opacity" dur="4.033s" begin="0s" fill="freeze" values="0; 0; 1; 1" keyTimes="0; 0.272727; 0.355372; 1" keySplines="0 0 1 1; 0.333 0 0.667 1; 0 0 1 1" calcMode="spline" /><g transform="translate(260.8,138.618)"><g transform="scale(0,0)"><animateTransform repeatCount="indefinite" type="scale" attributeName="transform" dur="4.033s" begin="0s" calcMode="spline" values="0 0; 0 0; 1.06 1.06; 1 1; 1.03 1.03; 1 1; 1 1" keyTimes="0; 0.272727; 0.355372; 0.380165; 0.404959; 0.429752; 1" keySplines="0 0 1 1; 0.333 0 0.667 1; 0.333 0 0.667 1; 0.333 0 0.667 1; 0.333 0 0.667 1; 0 0 1 1" fill="freeze" /><g transform="translate(0,0)"><g id="i1"><path stroke-miterlimit="10" stroke-linecap="round" stroke-width="10" stroke="#dcdee2" d="M32.815,0C32.815,18.123,18.123,32.815,0,32.815C-18.123,32.815,-32.815,18.123,-32.815,0C-32.815,-18.123,-18.123,-32.815,0,-32.815C18.123,-32.815,32.815,-18.123,32.815,0Z" /></g></g></g></g></g></g></g></g></g><g id="i8"><g transform="translate(200,273.621)"><g transform="scale(0,0)"><animateTransform repeatCount="indefinite" type="scale" attributeName="transform" dur="4.033s" begin="0s" calcMode="spline" values="0 0; 0 0; 1.06 1.06; 1 1; 1.03 1.03; 1 1; 1 1" keyTimes="0; 0.123967; 0.206612; 0.231405; 0.256198; 0.280992; 1" keySplines="0 0 1 1; 0.333 0 0.667 1; 0.333 0 0.667 1; 0.333 0 0.667 1; 0.333 0 0.667 1; 0 0 1 1" fill="freeze" /><g transform="translate(-200,-273.621)"><g opacity="0" visibility="hidden" id="i15"><animate repeatCount="indefinite" begin="0s" calcMode="discrete" dur="4.033s" values="hidden; visible; visible; visible" keyTimes="0; 0.272977; 0.999917; 1" attributeName="visibility" /><animate repeatCount="indefinite" attributeName="opacity" dur="4.033s" begin="0s" fill="freeze" values="0; 0; 1; 1" keyTimes="0; 0.272727; 0.355372; 1" keySplines="0 0 1 1; 0.333 0 0.667 1; 0 0 1 1" calcMode="spline" /><g transform="translate(260.8,138.618)"><g transform="rotate(25)"><animateTransform repeatCount="indefinite" type="rotate" attributeName="transform" dur="4.033s" begin="0s" calcMode="spline" values="25; 25; 745; 745" keyTimes="0; 0.272727; 0.991736; 1" keySplines="0 0 1 1; 0 0 1 1; 0 0 1 1" fill="freeze" /><g transform="scale(0,0)"><animateTransform repeatCount="indefinite" type="scale" attributeName="transform" dur="4.033s" begin="0s" calcMode="spline" values="0 0; 0 0; 1.06 1.06; 1 1; 1.03 1.03; 1 1; 1 1" keyTimes="0; 0.272727; 0.355372; 0.380165; 0.404959; 0.429752; 1" keySplines="0 0 1 1; 0.333 0 0.667 1; 0.333 0 0.667 1; 0.333 0 0.667 1; 0.333 0 0.667 1; 0 0 1 1" fill="freeze" /><g transform="translate(0,0)"><g stroke-dasharray="75 25" pathLength="100" id="i1" transform="matrix(0.906,-0.423,0.423,0.906,0,0)"><path stroke-miterlimit="10" stroke-width="10" stroke="#4669dc" d="M32.815,0C32.815,18.123,18.123,32.815,0,32.815C-18.123,32.815,-32.815,18.123,-32.815,0C-32.815,-18.123,-18.123,-32.815,0,-32.815C18.123,-32.815,32.815,-18.123,32.815,0Z" /></g></g></g></g></g></g></g></g></g></g><g id="i8"><g transform="translate(200,273.621)"><g transform="scale(0,0)"><animateTransform repeatCount="indefinite" type="scale" attributeName="transform" dur="4.033s" begin="0s" calcMode="spline" values="0 0; 0 0; 1.06 1.06; 1 1; 1.03 1.03; 1 1; 1 1" keyTimes="0; 0.123967; 0.206612; 0.231405; 0.256198; 0.280992; 1" keySplines="0 0 1 1; 0.333 0 0.667 1; 0.333 0 0.667 1; 0.333 0 0.667 1; 0.333 0 0.667 1; 0 0 1 1" fill="freeze" /><g transform="translate(-200,-273.621)"><g transform="matrix(1,0,0,1,200,227.245)" visibility="hidden" id="i16"><animate repeatCount="indefinite" begin="0s" calcMode="discrete" dur="4.033s" values="hidden; visible; visible; visible" keyTimes="0; 0.280977; 0.999917; 1" attributeName="visibility" /><g stroke-dashoffset="-38.889" stroke-dasharray="0 100" pathLength="100" id="i1"><path stroke-linejoin="round" stroke-linecap="round" stroke-width="8" stroke="#dcdee2" d="M76.823,23.122C76.823,23.122,-76.823,23.122,-76.823,23.122C-79.584,23.122,-81.823,20.883,-81.823,18.122C-81.823,18.122,-81.823,-18.122,-81.823,-18.122C-81.823,-20.883,-79.584,-23.122,-76.823,-23.122C-76.823,-23.122,76.823,-23.122,76.823,-23.122C79.584,-23.122,81.823,-20.883,81.823,-18.122C81.823,-18.122,81.823,18.122,81.823,18.122C81.823,20.883,79.584,23.122,76.823,23.122Z" /><animate repeatCount="indefinite" fill="freeze" begin="0s" dur="4.033s" calcMode="spline" keySplines="0 0 1 1; 0.333 0 0.667 1; 0 0 1 1" keyTimes="0; 0.280992; 0.396694; 1" values="0 100; 0 100; 100 0; 100 0" attributeName="stroke-dasharray" /><animate repeatCount="indefinite" fill="freeze" begin="0s" dur="4.033s" calcMode="spline" keySplines="0 0 1 1; 0.333 0 0.667 1; 0 0 1 1" keyTimes="0; 0.280992; 0.396694; 1" values="-38.889; -38.889; -38.889; -38.889" attributeName="stroke-dashoffset" /></g></g></g></g></g></g><g id="i8"><g transform="translate(200,273.621)"><g transform="scale(0,0)"><animateTransform repeatCount="indefinite" type="scale" attributeName="transform" dur="4.033s" begin="0s" calcMode="spline" values="0 0; 0 0; 1.06 1.06; 1 1; 1.03 1.03; 1 1; 1 1" keyTimes="0; 0.123967; 0.206612; 0.231405; 0.256198; 0.280992; 1" keySplines="0 0 1 1; 0.333 0 0.667 1; 0.333 0 0.667 1; 0.333 0 0.667 1; 0.333 0 0.667 1; 0 0 1 1" fill="freeze" /><g transform="translate(-200,-273.621)"><g transform="matrix(1,0,0,1,188.247,227.245)" visibility="hidden" id="i17"><animate repeatCount="indefinite" begin="0s" calcMode="discrete" dur="4.033s" values="hidden; visible; visible; visible" keyTimes="0; 0.346971; 0.999917; 1" attributeName="visibility" /><g id="i1"><path stroke-miterlimit="10" stroke-linecap="round" stroke-width="8" stroke="#dcdee2" d="M-48.426,0"><set fill="freeze" dur="0.033s" begin="1.4s" to="M-48.426,0" attributeName="d" /><set fill="freeze" dur="0.033s" begin="1.4333333333333333s" to="M-48.426,0C-48.426,0,-47.931,0,-47.012,0" attributeName="d" /><set fill="freeze" dur="0.033s" begin="1.4666666666666666s" to="M-48.426,0C-48.426,0,-46.447,0,-43.055,0" attributeName="d" /><set fill="freeze" dur="0.033s" begin="1.5s" to="M-48.426,0C-48.426,0,-43.975,0,-36.981,0" attributeName="d" /><set fill="freeze" dur="0.033s" begin="1.5333333333333334s" to="M-48.426,0C-48.426,0,-40.515,0,-29.215,0" attributeName="d" /><set fill="freeze" dur="0.033s" begin="1.5666666666666667s" to="M-48.426,0C-48.426,0,-36.068,0,-20.18,0" attributeName="d" /><set fill="freeze" dur="0.033s" begin="1.6s" to="M-48.426,0C-48.426,0,-30.634,0,-10.301,0" attributeName="d" /><set fill="freeze" dur="0.033s" begin="1.6333333333333333s" to="M-48.426,0C-48.426,0,-24.213,0,0,0" attributeName="d" /><set fill="freeze" dur="0.033s" begin="1.6666666666666667s" to="M-48.426,0C-48.426,0,-16.805,0,10.301,0" attributeName="d" /><set fill="freeze" dur="0.033s" begin="1.7s" to="M-48.426,0C-48.426,0,-8.409,0,20.18,0" attributeName="d" /><set fill="freeze" dur="0.033s" begin="1.7333333333333334s" to="M-48.426,0C-48.426,0,0.976,0,29.215,0" attributeName="d" /><set fill="freeze" dur="0.033s" begin="1.7666666666666666s" to="M-48.426,0C-48.426,0,11.351,0,36.981,0" attributeName="d" /><set fill="freeze" dur="0.033s" begin="1.8s" to="M-48.426,0C-48.426,0,22.716,0,43.055,0" attributeName="d" /><set fill="freeze" dur="0.033s" begin="1.8333333333333333s" to="M-48.426,0C-48.426,0,35.074,0,47.012,0" attributeName="d" /><set fill="freeze" dur="0.033s" begin="1.8666666666666667s" to="M-48.426,0C-48.426,0,48.426,0,48.426,0" attributeName="d" /></path></g></g></g></g></g></g><g id="i8"><g transform="translate(200,273.621)"><g transform="scale(0,0)"><animateTransform repeatCount="indefinite" type="scale" attributeName="transform" dur="4.033s" begin="0s" calcMode="spline" values="0 0; 0 0; 1.06 1.06; 1 1; 1.03 1.03; 1 1; 1 1" keyTimes="0; 0.123967; 0.206612; 0.231405; 0.256198; 0.280992; 1" keySplines="0 0 1 1; 0.333 0 0.667 1; 0.333 0 0.667 1; 0.333 0 0.667 1; 0.333 0 0.667 1; 0 0 1 1" fill="freeze" /><g transform="translate(-200,-273.621)"><g opacity="0" visibility="hidden" id="i18"><animate repeatCount="indefinite" begin="0s" calcMode="discrete" dur="4.033s" values="hidden; visible; visible; visible" keyTimes="0; 0.346971; 0.999917; 1" attributeName="visibility" /><animate repeatCount="indefinite" attributeName="opacity" dur="4.033s" begin="0s" fill="freeze" values="0; 0; 1; 1" keyTimes="0; 0.347107; 0.429752; 1" keySplines="0 0 1 1; 0.333 0 0.667 1; 0 0 1 1" calcMode="spline" /><g transform="translate(258.398,227.245)"><g transform="scale(0,0)"><animateTransform repeatCount="indefinite" type="scale" attributeName="transform" dur="4.033s" begin="0s" calcMode="spline" values="0 0; 0 0; 1.06 1.06; 1 1; 1.03 1.03; 1 1; 1 1" keyTimes="0; 0.347107; 0.429752; 0.454545; 0.479339; 0.504132; 1" keySplines="0 0 1 1; 0.333 0 0.667 1; 0.333 0 0.667 1; 0.333 0 0.667 1; 0.333 0 0.667 1; 0 0 1 1" fill="freeze" /><g transform="translate(0,0)"><g id="i1"><path fill="#dcdee2" d="M5.781,0C5.781,3.193,3.193,5.781,0,5.781C-3.193,5.781,-5.781,3.193,-5.781,0C-5.781,-3.193,-3.193,-5.781,0,-5.781C3.193,-5.781,5.781,-3.193,5.781,0Z" /></g></g></g></g></g></g></g></g></g></svg>